HIERARCHY
ROOT joint_0
{
	OFFSET 0.000000 0.000000 0.000000
	CHANNELS 6 Xposition Yposition Zposition Zrotation Yrotation Xrotation 
	JOINT joint_1
	{
		OFFSET 14.113007 -2.961990 123.953979
		CHANNELS 3 Zrotation Yrotation Xrotation
		JOINT joint_2
		{
			OFFSET 0.764000 -2.434006 113.871948
			CHANNELS 3 Zrotation Yrotation Xrotation
			JOINT joint_3
			{
				OFFSET 0.186996 -2.169998 113.753052
				CHANNELS 3 Zrotation Yrotation Xrotation
				JOINT joint_4
				{
					OFFSET 16.096001 -2.720001 160.853027
					CHANNELS 3 Zrotation Yrotation Xrotation
					JOINT joint_5
					{
						OFFSET 34.392006 -0.188995 92.567017
						CHANNELS 3 Zrotation Yrotation Xrotation
						End Site
						{
							OFFSET 0.000000 0.000000 0.000000
						}
					}
				}
				JOINT joint_6
				{
					OFFSET 9.183998 -36.684006 89.597046
					CHANNELS 3 Zrotation Yrotation Xrotation
					JOINT joint_7
					{
						OFFSET 0.486000 -164.365997 -28.984009
						CHANNELS 3 Zrotation Yrotation Xrotation
						JOINT joint_8
						{
							OFFSET 38.899002 -34.967010 -291.651978
							CHANNELS 3 Zrotation Yrotation Xrotation
							JOINT joint_9
							{
								OFFSET 41.714005 -45.890991 -258.857056
								CHANNELS 3 Zrotation Yrotation Xrotation
								End Site
								{
									OFFSET 0.000000 0.000000 0.000000
								}
							}
						}
					}
				}
				JOINT joint_10
				{
					OFFSET 8.867004 33.650002 90.817993
					CHANNELS 3 Zrotation Yrotation Xrotation
					JOINT joint_11
					{
						OFFSET 0.018997 164.299999 -29.368042
						CHANNELS 3 Zrotation Yrotation Xrotation
						JOINT joint_12
						{
							OFFSET 29.440994 30.887997 -293.216919
							CHANNELS 3 Zrotation Yrotation Xrotation
							JOINT joint_13
							{
								OFFSET 46.174011 54.490005 -256.422058
								CHANNELS 3 Zrotation Yrotation Xrotation
								End Site
								{
									OFFSET 0.000000 0.000000 0.000000
								}
							}
						}
					}
				}
			}
		}
	}
	JOINT joint_14
	{
		OFFSET -2.264000 -89.466995 -116.150024
		CHANNELS 3 Zrotation Yrotation Xrotation
		JOINT joint_15
		{
			OFFSET -16.400993 -17.452988 -493.781982
			CHANNELS 3 Zrotation Yrotation Xrotation
			JOINT joint_16
			{
				OFFSET -50.497004 -13.404022 -424.754013
				CHANNELS 3 Zrotation Yrotation Xrotation
				JOINT joint_17
				{
					OFFSET 198.546007 -19.341003 -89.309000
					CHANNELS 3 Zrotation Yrotation Xrotation
					End Site
					{
						OFFSET 0.000000 0.000000 0.000000
					}
				}
			}
		}
	}
	JOINT joint_18
	{
		OFFSET -0.867996 96.016006 -110.817993
		CHANNELS 3 Zrotation Yrotation Xrotation
		JOINT joint_19
		{
			OFFSET -10.130997 24.658998 -493.645020
			CHANNELS 3 Zrotation Yrotation Xrotation
			JOINT joint_20
			{
				OFFSET -48.871004 19.434999 -424.714005
				CHANNELS 3 Zrotation Yrotation Xrotation
				JOINT joint_21
				{
					OFFSET 195.579996 24.926001 -94.327003
					CHANNELS 3 Zrotation Yrotation Xrotation
					End Site
					{
						OFFSET 0.000000 0.000000 0.000000
					}
				}
			}
		}
	}
}
MOTION
Frames: 16
Frame Time: 0.016667
63.435000 -169.845000 1139.435060 -4.364536 -3.157443 -1.286044 0.549587 1.722983 2.118399 0.528377 -0.248106 -0.395904 0.539860 0.361469 0.324556 -0.553599 0.924137 1.492385 0.000000 0.000000 0.000000 0.273812 1.093167 0.810045 -0.017288 1.148473 1.483186 0.026515 4.028549 4.496900 0.000000 0.000000 0.000000 -2.802718 0.571383 -0.309511 0.174095 1.103875 -0.674051 -0.165733 5.883190 -9.197902 0.000000 0.000000 0.000000 -2.989677 2.324716 -0.565583 -3.046870 3.044517 0.267366 -2.634436 -4.087842 -1.579441 0.000000 0.000000 0.000000 -0.673294 0.017706 3.232347 -0.485858 2.848851 0.141630 -0.744687 -2.820909 0.001489 0.000000 0.000000 0.000000 
63.958000 -169.922000 1139.407960 -4.341076 -3.068216 -1.274862 0.566075 1.732679 2.123598 0.544621 -0.246692 -0.393192 0.556028 0.360335 0.323497 -0.547593 0.889166 1.476141 0.000000 0.000000 0.000000 0.195609 1.113195 0.704530 -0.003848 1.153060 1.566624 0.036079 3.999669 4.525926 0.000000 0.000000 0.000000 -2.826724 0.565270 -0.346364 0.168864 1.101191 -0.655398 -0.178313 5.849815 -9.220554 0.000000 0.000000 0.000000 -2.997314 2.250971 -0.573086 -3.057518 3.053682 0.267240 -2.645221 -4.068027 -1.582340 0.000000 0.000000 0.000000 -0.681238 -0.055902 3.227075 -0.490401 2.844371 0.133538 -0.747872 -2.791284 -0.003832 0.000000 0.000000 0.000000 
64.779000 -170.030000 1139.386960 -4.306127 -2.915859 -1.264877 0.591483 1.749255 2.135225 0.569569 -0.245793 -0.392458 0.580906 0.360678 0.325206 -0.543928 0.777721 1.466100 0.000000 0.000000 0.000000 0.057082 1.158959 0.536740 0.017717 1.171745 1.691364 0.060317 3.929991 4.600622 0.000000 0.000000 0.000000 -2.805133 0.565037 -0.403910 0.156190 1.095020 -0.611032 -0.208369 5.776061 -9.278822 0.000000 0.000000 0.000000 -3.009041 2.136534 -0.577621 -3.073021 3.043402 0.272301 -2.659830 -4.056244 -1.587765 0.000000 0.000000 0.000000 -0.692983 -0.170435 3.229723 -0.497784 2.814444 0.115738 -0.753831 -2.768725 -0.009607 0.000000 0.000000 0.000000 
65.741000 -170.146000 1139.368040 -4.253665 -2.694696 -1.255054 0.628416 1.787869 2.157357 0.605594 -0.246117 -0.393060 0.616876 0.361826 0.328970 -0.544561 0.558782 1.467372 0.000000 0.000000 0.000000 -0.207959 1.219469 0.278874 0.054444 1.180833 1.880962 0.102203 3.811042 4.726704 0.000000 0.000000 0.000000 -2.737228 0.551062 -0.521925 0.137920 1.065931 -0.502194 -0.255447 5.663677 -9.368003 0.000000 0.000000 0.000000 -3.026393 1.962615 -0.580232 -3.095883 3.022733 0.284247 -2.680196 -4.056391 -1.596963 0.000000 0.000000 0.000000 -0.709718 -0.351556 3.239149 -0.507109 2.777274 0.087167 -0.762707 -2.751771 -0.016078 0.000000 0.000000 0.000000 
67.000000 -170.293000 1139.354000 -4.189512 -2.411235 -1.246134 0.674279 1.835279 2.185680 0.650212 -0.245766 -0.393385 0.661362 0.360854 0.332910 -0.547433 0.261309 1.474324 0.000000 0.000000 0.000000 -0.537313 1.306211 -0.038059 0.099136 1.203955 2.108456 0.159087 3.651103 4.899523 0.000000 0.000000 0.000000 -2.623766 0.543569 -0.661069 0.112588 1.034079 -0.365752 -0.319910 5.511817 -9.494544 0.000000 0.000000 0.000000 -3.047810 1.748963 -0.579760 -3.123570 2.982338 0.301224 -2.704423 -4.064106 -1.608653 0.000000 0.000000 0.000000 -0.730122 -0.572663 3.256486 -0.519226 2.714354 0.048685 -0.774304 -2.741151 -0.023069 0.000000 0.000000 0.000000 
69.243000 -170.561000 1139.359010 -4.128142 -2.040619 -1.242390 0.727780 1.860492 2.210788 0.702204 -0.249076 -0.392973 0.713276 0.360932 0.338620 -0.548375 -0.088104 1.475614 0.000000 0.000000 0.000000 -0.769527 1.473130 -0.352725 0.133672 1.326524 2.307471 0.233006 3.445874 5.135927 0.000000 0.000000 0.000000 -2.421738 0.607507 -0.722886 0.070238 1.055117 -0.287418 -0.415782 5.286018 -9.698387 0.000000 0.000000 0.000000 -3.069240 1.529171 -0.569138 -3.149055 2.874705 0.319619 -2.727121 -4.071661 -1.619670 0.000000 0.000000 0.000000 -0.751288 -0.778533 3.292310 -0.537436 2.545584 -0.004825 -0.788291 -2.738418 -0.030269 0.000000 0.000000 0.000000 
72.502000 -171.004000 1139.421020 -4.082062 -1.539736 -1.250209 0.795020 1.842087 2.237763 0.768113 -0.253132 -0.394127 0.779013 0.358335 0.346716 -0.548262 -0.532393 1.473112 0.000000 0.000000 0.000000 -0.861350 1.752271 -0.643177 0.156021 1.588702 2.435615 0.348458 3.112574 5.498483 0.000000 0.000000 0.000000 -2.073304 0.763446 -0.678030 -0.001742 1.137223 -0.276843 -0.566470 4.923839 -10.027409 0.000000 0.000000 0.000000 -3.087729 1.282519 -0.531787 -3.167268 2.648556 0.331391 -2.745405 -4.076072 -1.628446 0.000000 0.000000 0.000000 -0.771703 -0.990620 3.367825 -0.560838 2.226837 -0.092084 -0.803324 -2.733629 -0.038303 0.000000 0.000000 0.000000 
76.745000 -171.567990 1139.503050 -4.040518 -0.952946 -1.263628 0.869520 1.804177 2.261554 0.841057 -0.257829 -0.394545 0.851651 0.349898 0.355027 -0.546764 -1.031565 1.465679 0.000000 0.000000 0.000000 -0.854673 2.114528 -0.909297 0.169957 1.953587 2.520491 0.481758 2.725816 5.920136 0.000000 0.000000 0.000000 -1.629554 0.991256 -0.575811 -0.088410 1.272104 -0.289436 -0.749057 4.492763 -10.442730 0.000000 0.000000 0.000000 -3.105860 1.031176 -0.483185 -3.182492 2.353680 0.344093 -2.762503 -4.072032 -1.635818 0.000000 0.000000 0.000000 -0.791660 -1.185048 3.462613 -0.589350 1.799322 -0.194126 -0.819718 -2.726990 -0.047274 0.000000 0.000000 0.000000 
82.573000 -172.181000 1139.498050 -3.981633 -0.381628 -1.269295 0.931577 1.767872 2.262203 0.900957 -0.258065 -0.390695 0.911031 0.335710 0.359960 -0.540965 -1.427141 1.446246 0.000000 0.000000 0.000000 -0.717473 2.524250 -1.117279 0.165844 2.392415 2.600205 0.562082 2.518342 6.225793 0.000000 0.000000 0.000000 -1.217515 1.295659 -0.434690 -0.159190 1.492604 -0.330029 -0.907551 4.153396 -10.846719 0.000000 0.000000 0.000000 -3.129164 0.868041 -0.462339 -3.202900 2.094465 0.376350 -2.783092 -4.048606 -1.642646 0.000000 0.000000 0.000000 -0.811672 -1.244602 3.526580 -0.627707 1.313581 -0.260856 -0.840320 -2.737944 -0.056071 0.000000 0.000000 0.000000 
90.257000 -172.811000 1139.313960 -3.914772 0.152579 -1.260490 0.971242 1.732535 2.223320 0.937930 -0.251294 -0.380874 0.947215 0.314544 0.360638 -0.530700 -1.674031 1.415146 0.000000 0.000000 0.000000 -0.366154 2.994658 -1.229948 0.135539 2.933621 2.640873 0.581228 2.545751 6.437334 0.000000 0.000000 0.000000 -0.860307 1.719870 -0.225396 -0.218063 1.845940 -0.417654 -1.052242 3.865264 -11.263071 0.000000 0.000000 0.000000 -3.161140 0.904789 -0.478884 -3.223487 1.711780 0.436260 -2.807640 -3.928977 -1.641649 0.000000 0.000000 0.000000 -0.823670 -1.093883 3.534431 -0.675926 0.701332 -0.264784 -0.859197 -2.764814 -0.062060 0.000000 0.000000 0.000000 
99.526000 -173.491000 1139.045040 -3.832088 0.672844 -1.246675 0.998055 1.696700 2.167531 0.961818 -0.241964 -0.368898 0.970260 0.292314 0.358729 -0.515563 -1.818698 1.371071 0.000000 0.000000 0.000000 0.129559 3.512464 -1.247822 0.088900 3.549359 2.650809 0.546961 2.754082 6.547218 0.000000 0.000000 0.000000 -0.532411 2.220893 -0.014150 -0.264151 2.285182 -0.491061 -1.173847 3.664588 -11.661417 0.000000 0.000000 0.000000 -3.197323 1.028752 -0.517795 -3.248365 1.360799 0.513845 -2.836325 -3.770875 -1.638334 0.000000 0.000000 0.000000 -0.834643 -0.808421 3.515719 -0.734381 0.025766 -0.232740 -0.882144 -2.787170 -0.070556 0.000000 0.000000 0.000000 
110.167000 -174.245000 1138.860960 -3.683486 1.145130 -1.240658 1.019213 1.679220 2.142581 0.979975 -0.234978 -0.365329 0.987824 0.279678 0.355230 -0.490175 -1.832016 1.299548 0.000000 0.000000 0.000000 0.581017 4.000659 -1.211973 0.040025 4.126534 2.738781 0.411792 3.228244 6.348477 0.000000 0.000000 0.000000 -0.296307 2.678190 0.056360 -0.259226 2.705910 -0.465470 -1.185143 3.820289 -11.849882 0.000000 0.000000 0.000000 -3.233230 0.996437 -0.577573 -3.300231 1.618749 0.600320 -2.870448 -3.772345 -1.652245 0.000000 0.000000 0.000000 -0.869417 -0.498000 3.507760 -0.809503 -0.463431 -0.199571 -0.930228 -2.810177 -0.090960 0.000000 0.000000 0.000000 
122.111000 -175.058000 1138.749020 -3.451984 1.544236 -1.238471 1.044185 1.693678 2.139997 1.001244 -0.230807 -0.355827 1.008912 0.284424 0.351060 -0.450850 -1.659618 1.191486 0.000000 0.000000 0.000000 0.929111 4.424016 -1.128028 -0.017378 4.619675 2.969110 0.118171 4.132340 5.689678 0.000000 0.000000 0.000000 -0.210572 3.047612 -0.098234 -0.173669 3.076915 -0.288230 -1.034751 4.488515 -11.748348 0.000000 0.000000 0.000000 -3.271516 0.776209 -0.666813 -3.387058 2.613008 0.695523 -2.917548 -3.944664 -1.687525 0.000000 0.000000 0.000000 -0.939201 -0.193576 3.508925 -0.905961 -0.666872 -0.167413 -1.010416 -2.820188 -0.128341 0.000000 0.000000 0.000000 
135.427000 -175.946000 1138.722050 -3.155059 1.896967 -1.233343 1.064368 1.723563 2.150586 1.016924 -0.229206 -0.344416 1.024691 0.302355 0.344830 -0.402198 -1.355591 1.060191 0.000000 0.000000 0.000000 1.238574 4.812155 -0.973475 -0.090515 5.070061 3.252161 -0.289030 5.321345 4.730497 0.000000 0.000000 0.000000 -0.231413 3.373301 -0.404610 -0.026503 3.430182 -0.006676 -0.760773 5.501737 -11.409477 0.000000 0.000000 0.000000 -3.301607 0.402365 -0.790932 -3.492873 4.200663 0.810927 -2.977146 -4.202304 -1.734985 0.000000 0.000000 0.000000 -1.033071 0.134749 3.512544 -1.019678 -0.687796 -0.133708 -1.113653 -2.816009 -0.178414 0.000000 0.000000 0.000000 
150.112000 -176.975010 1138.985960 -2.797452 2.248031 -1.225142 1.062061 1.740541 2.203588 1.009689 -0.233656 -0.360483 1.017673 0.326949 0.337446 -0.351632 -1.054742 0.925071 0.000000 0.000000 0.000000 1.496561 5.185863 -0.789023 -0.163549 5.493750 3.496004 -0.701202 6.427434 3.720650 0.000000 0.000000 0.000000 -0.272996 3.667771 -0.745231 0.149747 3.756668 0.280752 -0.409219 6.644580 -10.837770 0.000000 0.000000 0.000000 -3.290845 -0.272825 -0.958794 -3.596723 6.559283 0.967123 -3.039260 -4.563859 -1.790765 0.000000 0.000000 0.000000 -1.142624 0.468578 3.538404 -1.143497 -0.580755 -0.123308 -1.235341 -2.826317 -0.235141 0.000000 0.000000 0.000000 
166.270000 -178.113010 1139.738040 -2.326971 2.600397 -1.139696 1.025599 1.735400 2.184025 0.965866 -0.251920 -0.347423 0.974386 0.369560 0.328291 -0.294574 -0.780648 0.773573 0.000000 0.000000 0.000000 1.695773 5.559890 -0.587467 -0.233610 5.903008 3.703511 -1.110779 7.381708 2.622180 0.000000 0.000000 0.000000 -0.320877 3.917190 -1.145354 0.365361 4.040001 0.591905 0.036418 7.939620 -9.981149 0.000000 0.000000 0.000000 -3.235292 -1.209736 -1.280485 -3.696953 9.646505 1.230106 -3.119954 -4.909506 -1.848887 0.000000 0.000000 0.000000 -1.274866 0.788442 3.497064 -1.284171 -0.323467 -0.119124 -1.378793 -2.811919 -0.304819 0.000000 0.000000 0.000000 
